<?xml version="1.0" encoding="UTF-8" standalone="no"?>
<!-- Created with Inkscape (http://www.inkscape.org/) -->

<svg
   width="128"
   height="128"
   viewBox="0 0 33.866667 33.866666"
   version="1.1"
   id="svg1"
   sodipodi:docname="logo.svg"
   inkscape:version="1.3 (0e150ed6c4, 2023-07-21)"
   xml:space="preserve"
   xmlns:inkscape="http://www.inkscape.org/namespaces/inkscape"
   xmlns:sodipodi="http://sodipodi.sourceforge.net/DTD/sodipodi-0.dtd"
   xmlns="http://www.w3.org/2000/svg"
   xmlns:svg="http://www.w3.org/2000/svg"><sodipodi:namedview
     id="namedview1"
     pagecolor="#ffffff"
     bordercolor="#000000"
     borderopacity="0.25"
     inkscape:showpageshadow="2"
     inkscape:pageopacity="0.0"
     inkscape:pagecheckerboard="false"
     inkscape:deskcolor="#d1d1d1"
     inkscape:document-units="px"
     showgrid="true"
     inkscape:clip-to-page="false"
     showguides="true"
     inkscape:zoom="4"
     inkscape:cx="122"
     inkscape:cy="62.875"
     inkscape:window-width="1920"
     inkscape:window-height="991"
     inkscape:window-x="-9"
     inkscape:window-y="-9"
     inkscape:window-maximized="1"
     inkscape:current-layer="layer7"
     showborder="true"><inkscape:grid
       id="grid1"
       units="px"
       originx="0"
       originy="0"
       spacingx="4.2333333"
       spacingy="4.2333333"
       empcolor="#0099e5"
       empopacity="0.30196078"
       color="#0099e5"
       opacity="0.25098039"
       empspacing="5"
       dotted="false"
       gridanglex="30"
       gridanglez="30"
       visible="true"
       enabled="true"
       snapvisiblegridlinesonly="true" /></sodipodi:namedview><defs
     id="defs1" /><g
     inkscape:groupmode="layer"
     id="layer3"
     inkscape:label="V"
     style="display:inline"
     transform="matrix(0.15438882,0,0,0.15438882,28.735954,22.173191)"><path
       style="display:inline;opacity:1;fill:none;stroke:#00aaff;stroke-width:7.94428;stroke-linecap:round;stroke-linejoin:miter;stroke-dasharray:none;stroke-dashoffset:0;stroke-opacity:1;paint-order:normal"
       d="m -145.13238,-116.08601 c 0,0 -10.06299,2.55508 -10.06299,15.20989 0,12.654815 4.51263,20.490468 13.65349,37.47464 9.14083,16.984172 -7.83584,31.44536 -7.83584,31.44536 0,0 14.71277,2.634647 20.11492,12.773066 5.40212,10.1384214 14.31939,67.503531 14.31939,67.503531 l 40.25195,-164.406487"
       id="path1"
       inkscape:label="v1"
       sodipodi:nodetypes="czzczcc" /></g><g
     inkscape:groupmode="layer"
     id="layer4"
     inkscape:label="N"
     style="display:inline"
     transform="matrix(0.15438882,0,0,0.15438882,28.735954,22.173191)"><path
       id="path2"
       style="display:inline;opacity:1;fill:none;stroke:#aa00ff;stroke-width:7.94428;stroke-linecap:square;stroke-linejoin:round;stroke-dasharray:none;stroke-opacity:1;paint-order:normal"
       inkscape:label="n1"
       d="m -74.69146,-116.08601 -5e-6,163.526647 z m 0,0 L 5.8124492,48.276134 V -116.08601 H -14.313524"
       sodipodi:nodetypes="ccccccc" /></g><g
     inkscape:groupmode="layer"
     id="layer7"
     inkscape:label="S"
     transform="matrix(0.15438882,0,0,0.15438882,28.735954,22.173191)"><path
       style="-inkscape-font-specification:'Segoe UI Light';fill:#0000ff;stroke-width:9.85144;stroke-linecap:round;stroke-linejoin:round"
       d="M -117.87634,43.044088 V 29.861814 q 17.59384,11.432412 35.644665,11.432412 19.193275,0 29.132647,-8.04935 9.939371,-8.166011 9.939371,-22.748159 0,-12.8323034 -6.740494,-20.4150235 -6.626247,-7.6993825 -28.904156,-20.8816465 -24.905553,-14.815474 -31.531813,-24.731344 -6.62623,-10.032526 -6.62623,-23.098138 0,-17.731902 13.48097,-30.097575 13.480998,-12.36567 35.987399,-12.36567 14.623444,0 29.246889,5.01626 v 12.13236 q -14.394954,-6.64947 -30.732086,-6.64947 -16.679872,0 -26.504998,8.63264 -9.710884,8.632642 -9.710884,21.931569 0,12.832298 6.62625,20.415018 6.740492,7.582728 28.904157,20.648339 22.963385,13.298926 30.503595,23.681426 7.654467,10.2658404 7.654467,23.6814194 0,19.2484496 -13.138256,31.3808046 -13.024006,12.132353 -36.901355,12.132353 -8.45418,0 -19.536018,-2.683116 -10.96759,-2.683118 -16.79412,-6.182835 z"
       id="text1"
       inkscape:label="s"
       aria-label="S" /></g></svg>
